<?xml version="1.0" encoding="utf-8"?>
<!-- Generator: Adobe Illustrator 18.1.1, SVG Export Plug-In . SVG Version: 6.00 Build 0)  -->
<svg version="1.1" id="Warstwa_1" xmlns="http://www.w3.org/2000/svg" xmlns:xlink="http://www.w3.org/1999/xlink" x="0px" y="0px"
	 viewBox="0 0 75 7.6" enable-background="new 0 0 75 7.6" xml:space="preserve">
<path fill="#1C1C1B" d="M74.9,4.2c-2.2,0.7-4.5,1.5-6.9,2.2c-0.1,0-0.3,0-0.4,0c-0.1-0.6,0.3-1,0.7-1.5c-0.7,0.2-1.3,0.4-1.9,0.5
	C66,4.7,66,4.7,65.2,4.8c-1.4,0-2.9,0.1-4.3,0.1c-2.1,0-4.1,0-6.2-0.1c-1.5,0-3.1-0.1-4.6-0.2c-0.7,0-1.5,0-2.2,0
	c-1.9-0.1-3.7-0.2-5.6-0.2c-1.2,0-2.3,0-3.5,0.1c-0.2,0-0.5,0-0.7,0c-2.1-0.1-4.2-0.1-6.4-0.2c-1,0-2-0.1-3-0.1
	c-2.9,0-5.8,0-8.7-0.1c-0.8,0-1.3,0.2-1.6,1.1c-0.2,0.5-0.4,1.1-0.5,1.6c-0.6,0.1-1.1,0.1-1.7,0.2c-2,0.1-4,0.3-6,0.4
	C8,7.4,5.6,7.4,3.2,7.5c-0.6,0-1.2,0.1-2,0.1c0.1-0.2,0.1-0.4,0.2-0.5C1.8,6.7,2.2,6.4,2.6,6c0.3-0.3,0.6-0.6,0.8-0.9
	C3.1,4.7,2.8,4.5,2.7,4.2c-0.1-0.4,0-0.8,0-1.1C2.9,3,3.1,2.9,3.3,2.9C3,2.1,2.4,1.7,1.8,1.3C1.2,0.9,0.4,0.8,0,0
	c1.2,0,2.3-0.1,3.4-0.1c1.7,0,3.4,0,5.2,0.1c1.5,0,2.9,0,4.4-0.1c0.9-0.1,1.8,0,2.7,0c0.2,0,0.4,0.2,0.5,0.3
	c0.8,1.1,1.8,1.9,2.8,2.7c0.3,0.2,0.7,0.3,1,0.3c3.9,0.1,7.8,0.1,11.7,0.1c2.5,0,4.9-0.1,7.4-0.1c1.6,0,3.2-0.1,4.8,0
	c2.2,0.3,4.5,0.3,6.7,0.5c2.5,0.2,4.9,0.2,7.4,0c1.7-0.1,3.4,0.1,5.1,0.1c1,0,1.9-0.1,2.9-0.1C66.4,3,66.4,3,67.3,3.2
	c0.4,0.1,0.7,0.2,1.1,0.1C68,3,67.7,2.8,67.3,2.4c0.6-0.4,1.1-0.3,1.6-0.2c1.4,0.3,2.8,0.7,4.3,1c0.4,0.1,0.9,0.2,1.4,0.2
	C74.8,3.6,75,3.7,74.9,4.2z M73.9,3.9c-1.6-0.3-3.1-0.7-4.8-1.1c0.4,0.6,1.3,0.5,1.4,1.3c-0.6,0.4-1.2,0.9-1.8,1.3
	c0,0.1,0.1,0.1,0.1,0.2C70.4,5.1,72.2,4.8,73.9,3.9z M14.5,3.2c-0.7-1-1.3-2-1.9-2.8c-0.5,0-0.9,0-1.4,0c0.4,0.9,0.7,1.7,1.1,2.5
	c0.1,0.2,0.4,0.3,0.6,0.3C13.4,3.2,13.9,3.2,14.5,3.2z M11.6,6.8c0.6,0,1.1,0,1.5,0c0.4-1,0.8-1.9,1.3-2.8C14,4,13.7,4,13.4,4
	c-0.4,0-0.6,0.2-0.8,0.4C12.2,5.1,11.8,5.8,11.6,6.8z M18.6,3.2c-0.2-0.2-0.3-0.3-0.4-0.4c-0.7-0.7-1.4-1.3-2.1-2
	c-0.3-0.4-0.7-0.4-1.1-0.3c0.3,1,0.8,1.8,1.5,2.5c0.2,0.2,0.5,0.3,0.8,0.3C17.6,3.2,18,3.2,18.6,3.2z M17,4.1
	c-0.4,0.8-1.1,1.4-1,2.5c0.6-0.1,1.2-0.2,1.7-0.2c0.3-0.8,0.6-1.5,0.8-2.2C18,4.1,17.5,4.1,17,4.1z M13.9,6.7c0.5-0.1,1-0.1,1.3-0.2
	c0.4-0.9,0.7-1.7,1.2-2.6C15.8,4,15.3,4,15,4.3C14.3,4.9,14,5.7,13.9,6.7z M1.4,0.4C1.7,0.7,2,0.8,2.2,1c0.5,0.5,1.1,0.9,1.5,1.5
	C4.2,3.1,4.1,3.1,4.9,3c-0.5-0.9-1-1.8-1.5-2.7C2.8,0.3,2.1,0.4,1.4,0.4z M9.1,6.9C9.5,6,9.9,5.1,10.4,4.1c-0.5,0.1-1,0-1.3,0.3
	C8.4,5,8.1,5.9,8,6.9C8.4,6.9,8.7,6.9,9.1,6.9z M11,6.8c0.4-1,0.7-1.8,1.1-2.7c-0.8-0.3-1.2,0.1-1.5,0.7c-0.3,0.6-0.8,1.2-0.8,2
	C10.2,6.8,10.6,6.8,11,6.8z M8.4,4.3C7.6,4.2,7.6,4.2,7.3,4.7C7.1,4.9,6.9,5.1,6.7,5.3C6.4,5.8,6,6.2,6,6.9c0.5,0,0.9,0,1.3,0
	C7.7,6,8,5.2,8.4,4.3z M10.4,3.2C9.7,2.2,9,1.3,8.3,0.4c-0.2,0-0.5,0-0.9,0c0.2,0.5,0.4,1,0.6,1.4C8.5,2.7,9,3.5,10.2,3.2
	C10.2,3.2,10.3,3.2,10.4,3.2z M9.1,0.5c0.5,1,1.2,1.8,1.9,2.6c0.2,0.2,0.5,0.2,0.8,0c-0.2-0.5-0.4-0.9-0.5-1.3
	c-0.2-0.4-0.4-0.9-0.6-1.3C10.2,0.5,9.7,0.5,9.1,0.5z M6.9,3.1C6.8,2.8,6.7,2.6,6.5,2.4c-0.3-0.5-0.7-1-1.1-1.5
	C5.1,0.3,4.9,0.2,4.1,0.6c0.3,0.6,0.7,1.2,1,1.8C5.5,3,6.1,3.2,6.9,3.1z M6.7,4.5C5.3,4.4,4.4,5.2,4.3,6.9c0.4,0,0.7,0,0.9,0
	C5.8,6,6.2,5.3,6.7,4.5z M16,3.3c-0.6-1.1-1.2-2-1.7-2.9c-0.3,0-0.6,0-1,0c0.4,1.1,1.1,1.9,1.9,2.7C15.3,3.2,15.6,3.2,16,3.3z
	 M8.3,3.2c-0.5-1-1-1.9-1.4-2.8c-0.3,0-0.6,0-1,0C6.2,1.5,7,2.2,7.6,3C7.7,3.1,8,3.1,8.3,3.2z M4.6,4.8C4.2,4.6,4,4.8,3.9,5.1
	C3.5,5.8,3,6.3,2.4,6.8c-0.1,0-0.1,0.1-0.2,0.3C2.8,7.1,3.2,7,3.6,7C3.9,6.2,4.2,5.5,4.6,4.8z M69,4.2c-0.9-0.4-1.6-0.5-2.4-0.6
	c0.1,0.5,0.1,0.9,0.2,1.4C67.5,4.7,68.1,4.5,69,4.2z"/>
</svg>
