<?xml version="1.0" encoding="utf-8"?>
<!-- Generator: Adobe Illustrator 18.1.1, SVG Export Plug-In . SVG Version: 6.00 Build 0)  -->
<svg version="1.1" id="Warstwa_1" xmlns="http://www.w3.org/2000/svg" xmlns:xlink="http://www.w3.org/1999/xlink" x="0px" y="0px"
	 viewBox="0 0 41.6 30.1" enable-background="new 0 0 41.6 30.1" xml:space="preserve">
<path fill="#2A92CE" d="M9.3,29.9c0-0.2,0.1-0.3,0.1-0.6c-0.8,0-1.3,0.7-2,0.8c-0.1-0.1-0.1-0.2-0.2-0.3c-0.1-0.3-0.4-0.3-0.6-0.3
	c-0.6,0.1-0.6,0.1-0.9-0.4c-0.1-0.3-0.3-0.4-0.6-0.3c0,0-0.1,0-0.1,0c-0.7,0.2-0.7,0.2-1.1-0.4c-0.2,0-0.4,0.1-0.6,0.1
	c0-0.1-0.1-0.1-0.1-0.1c0.2-0.9,0-1-0.9-0.9c-0.7,0.1-1.5,0.2-2.3,0.1c0.2-0.2,0.3-0.5,0.5-0.6c0.6-0.5,1.2-1,1.8-1.5
	c0.8-0.6,1.5-1.3,2.3-1.8c1.3-1,2.7-1.9,4-2.9c1.2-0.9,2.5-1.8,3.7-2.7c0.7-0.5,1.5-1,2.2-1.5c0.6-0.4,0.7-0.7,0.5-1.3
	c-2.4,0.3-4.9,0.6-7.4,0.9c0.4-0.3,0.8-0.6,1.1-0.9c0.2-0.2,0.5-0.4,0.7-0.6c0.4-0.5,0.2-0.8-0.4-0.9c-0.8-0.1-1.6-0.3-2.3-0.5
	c-0.3-0.1-0.5-0.2-0.8-0.3c0-0.1,0-0.1,0-0.2c1-0.2,2-0.4,3-0.5c1.5-0.2,2.9-0.4,4.4-0.7c1.7-0.3,3.4-0.7,4.9-1.6
	c0.5-0.3,1-0.6,1.3-1c0.9-0.9,1.9-1.6,3-2.2c0.9-0.5,1.8-1.1,2.7-1.7c1.1-0.7,2.2-1.4,3.2-2c0.4-0.3,0.8-0.5,1.2-0.7
	c0.8-0.6,1.6-1.1,2.5-1.7c0.8-0.5,1.6-0.7,2.5-0.7c1.5,0.1,2.9,0.7,4,1.8c0.9,1,1.5,2.1,1.2,3.5c-0.1,0.8,0.3,1.2,0.7,1.8
	c0.4,0.4,0.7,0.9,1,1.4c-0.4-0.1-0.8-0.1-1.2-0.2c-0.4-0.1-0.9-0.1-1.3-0.2c-0.6-0.1-1.1,0.1-1.5,0.6c-0.4,0.7-0.8,1.5-1.2,2.2
	c-0.7,1.6-1.3,3.2-2.1,4.8c-0.5,1.1-1.2,2.2-1.9,3.1c-0.7,1-1.7,1.7-2.8,2.3c-2.5,1.3-5.2,1.7-7.9,1.1c-1.3-0.3-2.6-0.6-3.7-1.3
	c-0.4-0.2-0.6-0.2-0.9,0.2c-0.3,0.4-0.7,0.8-1,1.1c-1.2,1.4-2.3,2.7-3.5,4.1c-0.6,0.6-1.1,1.3-1.7,1.9c-0.5,0.6-1.1,1.1-1.6,1.7
	C9.4,30,9.3,30,9.3,29.9z"/>
</svg>
