<?xml version="1.0" encoding="utf-8"?>
<!-- Generator: Adobe Illustrator 18.1.1, SVG Export Plug-In . SVG Version: 6.00 Build 0)  -->
<svg version="1.1" id="Warstwa_1" xmlns="http://www.w3.org/2000/svg" xmlns:xlink="http://www.w3.org/1999/xlink" x="0px" y="0px"
	 viewBox="0 0 231.2 142.4" enable-background="new 0 0 231.2 142.4" xml:space="preserve">
<path fill="#1C1C1B" d="M28.2,11.6c1.5,0.6,2.2,2.1,3.5,2.8c0.6,0.3,1.1,0.7,1.7,1.1c-0.6,0.8-1.5,0.4-2.3,0.6c0.1,1,1,1.1,1.5,1.6
	c0.5,0.5,1.2,1,1.9,1.3c0.7,0.3,1.4,0.3,2.3,0.5c-0.2,0.2-0.3,0.5-0.5,0.6c-0.3,0.1-0.6,0.3-0.6,0.6c0.9,0.5,1.8,1,2.7,1.4
	c1.9,0.7,3.7,0.5,5.6-0.2c0.6-0.2,1.2-0.5,1.7-0.8c1.7-1,3.5-0.9,5.2-0.2c3.1,1.2,6.1,2.8,8.6,4.9c1.9,1.6,3.4,3.5,4.3,5.9
	c0.1,0.3,0.4,0.6,0.6,0.9c0.5-0.5,0.2-0.8,0.1-1.2c-0.6-1.9-1.8-3.4-3.1-4.9c-1.5-1.6-2.9-3.3-3.9-5.2c-0.2-0.4-0.3-1-0.4-1.5
	c-0.2-0.6,0.1-1.1,0.6-1.5c1.4-1.2,2.2-2.7,2.5-4.5c0.1-0.8,0.2-0.8-0.8-1.1c-0.2-1-0.5-2-0.8-3c-0.3,0.1-0.6,0.2-0.8,0.3
	c-0.4-0.9-0.9-1.8-1.3-2.7c-0.2-0.4-0.1-0.9-0.2-1.4c0-0.2-0.2-0.4-0.3-0.4c-0.2,0-0.5,0.1-0.5,0.3c-0.3,0.6-0.6,1.2-0.8,1.8
	c-0.2,0.6-0.4,1.1-0.6,1.8c-0.4-0.2-0.9-0.4-1.4-0.7c0.1,1.4,0.3,2.6-0.1,3.8c-0.4-0.1-0.9-0.2-1.4-0.3c0.2,2,0.3,4,2.2,5
	c1.9,1,3,2.4,3.6,4.4c0.2,0.5,0.5,1,0.9,1.7c-0.9-0.5-1.6-0.8-2.3-1.2c-1.2-0.6-2.4-1.2-3.6-1.8c-0.5-0.3-1-0.5-1.5-0.8
	c-1.3-0.7-2.1-1.7-2.5-3.1c-0.3-1.2-0.8-2.3-1.5-3.4c-0.9-1.4-2.3-2.3-3.6-3.2c-0.1-0.1-0.4-0.1-0.7-0.2c0,0.5,0.1,0.8,0.1,1.2
	c-1.6-0.9-3.3-1.2-5-1.3c-0.4,0-0.8-0.3-1.2-0.4c-0.2-0.1-0.4,0-0.8,0c0.2,0.5,0.3,1,0.4,1.4c-0.1,0-0.2,0.1-0.2,0.1
	c-1.3-0.4-2.5-0.2-3.8,0.1c-1,0.3-2,0.2-3-0.1c-0.1,0-0.4,0.1-0.4,0.2C28,11.2,28.1,11.5,28.2,11.6z M53.6,16.6
	c0.2,0.1,0.5,0.3,0.7,0.4C54.1,16.9,53.8,16.8,53.6,16.6z M52.7,15.9c0.2,0.2,0.4,0.3,0.6,0.5C53,16.3,52.9,16.1,52.7,15.9z
	 M52.7,14c-0.2-0.1-0.4-0.2-0.6-0.3c-0.1,0.8,0,1.5,0.5,2c-0.4-0.6-0.6-1.2-0.5-2C52.3,13.8,52.5,13.9,52.7,14z"/>
<path fill="#1C1C1B" d="M171.1,83.3c1.4-1.3,2.8-2.5,4.1-3.8c1.8-1.7,3-3.9,4.5-5.8c0.2-0.3,0.2-0.6,0.1-1c-0.3-0.7-0.8-1.3-1.5-1.8
	c-1.2-0.7-2.1-1.7-2.9-2.8c-1.1-1.4-1.1-3.5-0.1-5c0.4,0.5,0.8,1.1,1.7,1c0-0.2-0.1-0.4-0.1-0.6c-0.1-1.2-0.3-2.4-0.3-3.6
	c0-0.9,0.4-1.9-0.4-2.7c-0.2-0.2,0-0.7,0.4-0.6c0.7,0.1,1.6-0.2,2.1,0.6c0.2,0.2,0.4,0.4,0.9,0.7c-0.1-0.4-0.1-0.6-0.2-0.7
	c-0.5-0.7-0.6-1.6-0.5-2.4c0.2-1.3,0.6-2.5,0.9-3.7c0,0,0.1,0,0.1-0.1c0.8-0.1,0.8,1.1,1.7,1.1c-0.5-1.2-0.4-2.4-0.1-3.6
	c0.2-1,0.5-1.9,0.8-2.9c0.1-0.5,0.4-1,0.1-1.5c-0.1-0.2,0.1-0.5,0.1-0.9c0.9,0.6,1.1,1.6,1.9,2.1c0-0.4,0-0.6-0.1-0.8
	c-0.3-1.2-0.2-2.4,0.4-3.5c0.7-1.2,1.3-2.5,2-3.7c0,0,0.1,0,0.2-0.1c0.1,0.2,0.3,0.3,0.3,0.5c-0.2,1.1,0.3,1.9,1,2.6
	c0.1-0.1,0.2-0.1,0.2-0.2c0.9-2,2.7-3,4.3-4.3c0.8-0.6,1.7-1,2.6-1.4c0.4-0.2,0.7-0.1,0.9,0.4c-0.7,0.8-0.8,1.8-0.9,2.9
	c-0.1,1-0.1,2,0,3c0,1.2,0.1,2.3,0.1,3.5c0,0.1,0.1,0.1,0.1,0.2c0.4-0.1,0.7-0.1,1.2-0.2c-0.1,0.3-0.1,0.5-0.1,0.6
	c-0.2,0.4-0.4,0.8-0.5,1.3c-0.3,1.3-0.6,2.7-1.3,3.9c-0.1,0.1-0.1,0.3-0.1,0.5c0.5,0.3,1.1-0.2,1.5,0.4c-0.2,0.2-0.4,0.4-0.5,0.6
	c-0.2,0.3-0.4,0.5-0.5,0.9c-0.4,1.6-0.8,3.2-1.7,4.6c-0.1,0.1,0,0.2,0,0.3c1,0.6,1.7-0.9,2.7-0.2c0,0.1,0,0.2,0,0.3
	c0,0.1-0.1,0.2-0.1,0.2c-1.3,0.9-2.1,2.3-2.7,3.7c-0.7,1.6-1.6,3.2-2.8,4.5c0,0,0,0.1,0,0.2c0.3,0,0.6,0.1,0.9,0.1
	c-0.1,0.7-0.5,0.9-0.9,1.1c-0.4,0.2-0.7,0.5-1,0.8c-1,0.9-1.9,1.9-2.9,2.7c-0.7,0.6-1.6,1-2.5,1.4c-1,0.4-2.1,0.6-3.2,1
	c-1,1.4-2,3-3.1,4.4c-1.9,2.4-4,4.5-6.4,6.4c-0.4,0.3-0.8,0.6-1.6,0.8C170.1,84,170.6,83.7,171.1,83.3z"/>
<path fill="#1C1C1B" d="M51.7,91.4c0.1,0.3,0.1,0.5,0.2,0.6c0.1,1.2,0.2,2.4,0.4,3.6c0.2,1,0.1,1.9-0.2,2.8c-0.4,1-1,1.7-2.2,1.6
	c-0.3,0-0.5,0-0.9,0c-0.7,1-1,2.2-1.4,3.4c1.2,0,2.2-0.1,3.3-0.1c0.4-0.5,0.5-1.2,1.3-1.3c1-0.1,1.9,0.1,2.6,0.8
	c0.8,0.7,1.4,1.6,2.4,2c0.1,0,0.1,0.2,0.1,0.2c-1.1,0.5-2.1,0.9-3.1,1.4c-1.7,0.7-3-0.1-3.2-2.2c-1-0.3-2-0.2-3,0.1
	c-0.3,0.1-0.5,0.5-0.6,0.8c-0.1,1.2-0.2,2.3-0.2,3.5c0,0.6,0.3,1.2,0.7,1.7c1.9,1.9,3.1,4.3,4.4,6.5c0.6,1.1,1,2.3,1.4,3.5
	c0.3,0.9-0.2,1.4-1.3,1.3c0-0.1-0.1-0.2-0.1-0.2c0.5-1.6-0.4-2.9-0.9-4.2c-0.6-1.3-1.3-2.5-2.1-3.7c-1.4-2.3-3.2-4.2-5.1-6
	c-0.5-0.5-1.2-0.8-1.9-1.1c-1.9-0.7-3.8-1.3-5.7-0.2c-0.7,0.4-1.4,0.8-1.9,1.4c-0.5,0.5-0.7,1.1-0.4,1.9c0.2,0.6,0.3,1.3,0.4,2
	c0.3,1.6-0.4,2.9-1.5,4c-0.7,0.7-1.6,1.3-2.4,2c-0.2-0.2-0.3-0.3-0.4-0.5c-0.4-0.8-0.7-1.6-1.1-2.5c-0.5-1.1-0.1-2,0.4-2.9
	c0.7-1.2,1.8-2,3.1-2.7c0.3-0.2,0.7-0.3,0.8-0.6c0.6-1.6,2-2.4,3.7-3.1c-1.2-0.2-2.2-0.3-3.1-0.5c-1.6-0.2-3.3-0.4-4.9-0.6
	c-0.2,0-0.5-0.1-0.7,0c-0.8,0.5-1.8,0.8-2.3,1.8c0.1,0.4,0.2,0.8,0.2,1.1c0.3,2-1,3.8-3,4.2c-1,0.2-2.1,0.2-2.9,1
	c-0.1,0.1-0.4,0-0.7-0.1c0.8-1.7,1.5-3.3,2.3-4.9c0.5-0.9,1.5-1.3,2.5-1.4c0.5-0.1,0.9-0.2,1.2-0.6c0.4-0.5,1-1,1.5-1.6
	c-0.2-0.1-0.5-0.2-0.7-0.3c-2-0.5-4-1-5.9-2c-1-0.6-3.2,0-4.2,1.1c-0.2,0.2-0.2,0.7-0.2,1.1c0.3,1.7,0,2.3-1.6,3
	c-0.8,0.4-1.6,0.5-2.5,0.5c-0.7,0-1.5-0.1-2.1,0.6c-0.1,0.1-0.4,0-0.6,0c0-0.2,0-0.4,0.1-0.6c0.5-0.9,1-1.7,1.5-2.5
	c0.8-1.5,1.9-2.4,3.7-2.4c0.4,0,0.9-0.2,1.3-0.4c0.8-0.4,1.6-0.9,2.5-1.4c-0.1-0.1-0.2-0.3-0.4-0.4c-1.3-1.1-2.5-2.2-3.8-3.4
	c-0.4-0.4-0.9-0.5-1.4-0.3c-1,0.5-1.9,0-2.6-0.6c-0.6-0.6-1.2-1.2-1.5-2c-0.7-1.5-1.1-3.1-2.3-4.4c0.4-0.4,0.8-0.6,1.2-0.2
	c1,1.2,2.4,1.4,3.7,1.9c0.4,0.2,0.8,0.2,1.3,0.3c2,0.5,2.6,2.1,1.7,3.9c0,0.1,0,0.1-0.1,0.4c0.7,0.7,1.4,1.4,2.2,2.2
	c1.7,1.6,3.6,3,5.8,3.8c1.8,0.6,3.7,1,5.6,1.5c1,0.3,2,0.4,3,0.7c0.1,0,0.3,0,0.5,0c-0.6-0.8-1.3-1.4-1.7-2.2
	c-0.6-1.1-1-2.2-1.4-3.4c-0.7-2-1-2.3-3.2-2.7c-0.2,0.3-0.4,0.5-0.6,0.8c-0.4,0.6-0.9,1.1-1.7,1.1c-0.9,0-1.7-0.3-2.3-1
	c-0.2-0.3-0.5-0.5-0.6-0.8c-0.4-0.8-0.8-1.5-1.6-2c-0.1-0.1-0.2-0.4-0.3-0.8c1.7,0.2,3-0.7,4.6-0.3c0.7,0.2,1.4,0.5,1.7,1.1
	c0.4,0.9,1,1.3,2,1.4c0.3,0,0.5,0.2,0.9,0.3c-0.6-1.7-1.3-3.2-2.4-4.5c-0.5-0.5-1.1-0.9-1.9-0.8c-0.9,0.1-1.5-0.4-2-1.2
	c-0.8-1.2-0.9-2.7-1.6-3.9c-0.2-0.4,0.1-0.6,0.5-0.5c0.7,0.1,1.5,0.3,2.2,0.5c2,0.6,3.1,2.1,3,4.2c0,0.7,0.1,1.2,0.5,1.7
	c0.8,1.1,1.4,2.2,2,3.4C28,95,28.3,96,28.7,97c0.7-0.4,0.8-0.9,0.7-1.5c-0.3-1.5,0.2-2.3,1.5-3c0.7-0.4,1.4-0.9,2.1-1.3
	c0.2-0.1,0.4-0.2,0.8-0.2c-0.6,1-0.4,2-0.4,3c0,0.3-0.1,0.6-0.1,0.9c-0.3,1.5-1,2-2.5,1.9c-1.1-0.1-1.8,0.7-1.5,1.8
	c0.6,2.3,2,4,4,5.2c0.2,0.1,0.4,0.2,0.5,0.2c3,0.2,5.8,1,8.7,1.8c-0.9-1.5-1.8-2.8-2.5-4.3c-0.9-1.8-1.7-3.6-2.4-5.4
	c-0.7-1.7-1.1-3.5-1.9-5.1c-1.2-2.4-2.7-4.7-5-6.3c-1-0.7-2-1.4-2.9-2.2c-1.9-1.6-4.2-2.4-6.5-3.3c-0.6-0.2-1.3-0.2-2-0.2
	c-0.3,0-0.5,0.2-0.8,0.4c-0.7,0.5-1.4,1-2.3,1.1c-0.6,0-1.2,0-1.6-0.5c-1.3-1.3-2.5-2.6-3.7-3.9c-0.1-0.1,0-0.2-0.1-0.4
	c0.3,0,0.6-0.1,0.9-0.1c1.5-0.1,3.1-0.2,4.6-0.3c1.2-0.1,2,0.5,2.7,1.4c0.2,0.4,0.4,0.8,0.7,1.1c0.1,0.2,0.4,0.5,0.6,0.5
	c1.6,0.1,2.9,1.1,4.3,1.5c1.7,0.6,3.1,1.8,4.8,2.9c-0.7-2.5-1.4-4.8-2.1-7.1c-0.3-1-0.9-1.8-1.3-2.8c-0.6-1.4-1.9-1.8-3.2-2.3
	c-0.2-0.1-0.6,0.1-0.9,0.2c-0.2,0.1-0.3,0.3-0.4,0.4c-0.9,1-2,1.2-3.2,0.6c-0.6-0.3-1.3-0.6-2-0.8c-0.6-0.2-1.2-0.4-1.8-0.7
	c-0.2-0.1-0.4-0.2-0.4-0.4c0-0.1,0.1-0.4,0.3-0.4c1.3-0.5,2.6-1.1,4-1.3c1.3-0.2,2.6-0.1,3.6,1.1c0.4,0.5,1.1,0.6,1.8,1
	c-0.4-1.2-3-4.1-4.2-4.6c-1.9-0.8-3.8-1.4-6-1.6c-0.4,1-1.1,1.5-2,1.9c-1.1,0.5-2.3,0.6-3.4,0c-0.4-0.2-0.8-0.4-1.3-0.6
	c-0.9-0.4-1.9-0.8-2.9-0.5c-0.1,0-0.3,0-0.4,0c-0.2-0.4,0-0.7,0.4-0.7c1.9-0.2,3.5-1.3,5.3-1.8c1.3-0.4,2.6-0.2,3.7,0.7
	c0.3,0.2,0.6,0.4,0.9,0.5c1.5,0.3,3.1,0.6,4.6,0.9c-0.1-0.1-0.2-0.3-0.3-0.5c-0.5-0.6-1-1.3-1.4-1.9c-0.9-1.2-1.7-2.5-2.6-3.7
	c-0.2-0.2-0.5-0.4-0.7-0.4c-1.6,0.1-2.5-0.9-3.3-2.1c-0.6-0.9-0.9-2-1.1-3.1c-0.2-1.5-0.2-3.1-1.1-4.4c-0.1-0.2,0-0.4,0-0.6
	c0.2,0.1,0.6,0,0.7,0.2c0.4,0.5,0.6,1.1,1.1,1.6c0.7,0.8,1.6,1.5,2.4,2.3c0.7,0.7,1.6,1.3,2.2,2.1c1.1,1.3,1.1,2.2,0.1,3.6
	c0.9,1.3,1.7,2.5,2.7,3.9c0.3-0.7,0.5-1.2,0.7-1.7c0.4-0.8,0.6-1.4,0-2.3c-0.6-0.8-0.1-1.9,0.2-2.7c0.5-1.3,1.3-2.4,2.6-3.1
	c0.5-0.3,0.9-0.8,1.3-1.2c0.3-0.3,0.3-0.3,1.1-0.1c-0.6,1.7-0.7,3.4-0.7,5.2c0,0.4-0.1,0.7-0.2,1.1c-0.3,1.3-1.1,1.9-2.4,2
	c-0.2,0-0.4,0-0.7,0c-0.3,0.8-0.8,1.7-1,2.6c-0.2,0.7,0,1.4,0.4,2c0.9,1,1.8,2.1,2.8,3C23,68.1,24.5,70,26,72
	c0.2-1.8,0.4-3.6,0.7-5.7c0.1,0.2,0.1,0.1,0,0c-1.5-1.7-1.5-3.5,0.2-5.1c0.5-0.5,1.1-1,1.7-1.5c0.4-0.4,0.7-0.9,1.1-1.4
	c0.2-0.3,0.4-0.8,0.9-0.4c0,1.8,0.1,3.7,0.1,5.5c0,1.6-1,2.8-2.6,3.2c-0.1,0-0.3,0.1-0.5,0.2c-0.8,2.7-0.9,5.4,0.1,8.1
	c0.8,2.1,1.4,4.3,1.9,6.4c0.4,1.7,1.4,2.9,2.7,3.8c0.8,0.6,1.4,1.4,2,2.2c1.5,1.9,2.5,4,3.2,6.3c0.5,1.6,1.3,3.2,2.1,4.8
	c0.3-1.2,0.7-2.5,0.9-3.7c0.3-1.4,0.6-2.8,0.8-4.3c0.2-0.9-0.2-1.7-0.4-2.5c-0.7-1.8-1.9-3.4-2.9-5c-1.1-1.7-2-3.5-2.5-5.4
	c-0.1-0.4-0.3-0.6-0.7-0.7c-1.1-0.4-1.5-1.3-1.6-2.5c-0.1-1.4,0.1-2.7,0.6-3.9c0.3-0.8,0.5-1.6,0.4-2.4c0-0.1,0.1-0.3,0.2-0.6
	c0.3,0.3,0.5,0.5,0.5,0.7c0.3,1.4,1.2,2.5,1.9,3.8c0.4,0.8,0.7,1.6,0.9,2.4c0.3,1.3-0.1,1.8-1.2,2.4c-0.1,0.1-0.3,0.1-0.5,0.2
	c0.1,1.2,0.6,2.3,1.1,3.3c0.8,1.5,1.8,2.9,2.7,4.4c0.6,1,1.1,2.1,1.8,3.3c0.6-2.5,0.5-4.9,0.3-7.3c0,0-0.1-0.1-0.1-0.1
	c-1.8-0.8-1.9-2.3-1.7-4c0.2-1.3,0.4-2.6,0.7-3.8c0.1-0.3,0.5-0.5,0.9-0.9c0,1.5,0.7,2.4,1.4,3.4c0.4,0.6,0.8,1.3,1,2
	c0.5,1.2,0.1,2.4-1.1,3.1c-0.4,0.2-0.4,0.5-0.4,0.9c0,0.7,0.1,1.3,0.1,2c0,2.7-0.3,5.3-0.9,8c1.4-0.5,2.1-1.5,2.8-2.6
	c1.5-2.2,2.5-4.7,2.9-7.4c0.4-2.3,0.8-4.6,1.8-6.8c0-0.1,0-0.2-0.1-0.3c-1.2-1.5-1.1-2.8,0.2-4.5c1-1.3,2.1-2.5,3.2-3.9
	c0.3,0,0.6,0.2,0.4,0.7c-0.5,1.1-0.2,2.2-0.1,3.3c0.1,0.5,0.1,1.1,0.2,1.6c0.3,2-0.8,3.6-3.1,3.3c-0.8,1.4-1.2,2.9-1.5,4.6
	c-0.2,1.5-0.6,3.1-0.8,4.7c0.5-0.1,1-0.2,1.5-0.2c0.5,0,0.9-0.2,1.3-0.5c1-0.9,2.2-1.1,3.3-0.4c1.1,0.7,2.2,1.4,3.4,2.2
	c-0.5,0.3-0.9,0.6-1.4,0.8c-0.6,0.3-1.2,0.7-1.9,0.9c-1.2,0.4-3.2-0.2-3.7-1.7c-0.1-0.2-0.4-0.4-0.7-0.5c-1.1-0.2-2.2,0.7-2.6,1.6
	c-0.6,1.5-1.5,2.8-2.4,4c-0.6,0.9-1.5,1.4-2.4,2.1c-0.3,0.2-0.5,0.4-0.6,0.8c-0.3,1.7-0.7,3.4-1.1,5.1c-0.5,1.7,0.1,3.2,0.9,4.6
	c1.2,2.2,2.9,4,4.7,5.7c0.1,0.1,0.2,0.1,0.5,0.3c-0.4-3.3,0.5-6.1,1.7-9c-1.1-0.9-1.4-2.1-1.1-3.6c0.2-0.8,0.6-1.5,1.3-1.9
	c0.9-0.5,1.6-1.2,2.3-2C50.9,92,51.3,91.8,51.7,91.4z M33.4,110.2c-0.2,0.4-0.4,0.6-0.5,0.9c-0.1,0.3-0.3,0.5-0.4,0.9
	c-0.8-0.7,0-1.3-0.1-1.9c-1.2,0.6-2,1.4-2.5,2.5c-0.2,0.4-0.3,1-0.2,1.5c0.2,0.8,0.7,1.5,1.1,2.3C33.9,114.1,34.6,112.5,33.4,110.2z
	 M9.2,50.6c0.3,1.4,0.4,2.6,0.7,3.8c0.3,1,0.9,1.8,1.7,2.5c0.4,0.3,0.8,0.7,1.4,0.5c0.1-0.4-0.5-0.8,0-1c0.2-0.1,0.6,0.2,1,0.4
	c0.6-0.5,0.3-1.2,0-1.7c-0.5-0.8-1.2-1.5-1.9-2.1C11.3,52.2,10.3,51.5,9.2,50.6z M51,93.2c-0.8,0.6-1.6,1.2-2.4,1.8
	c-1.2,1-1.3,2.9-0.1,4c0.8-0.7,0.9-1.9,2.1-2.4c-0.4,0.9-0.8,1.8-1.2,2.7c1.3,0,1.8-0.2,2-1.3c0.1-0.6,0.2-1.2,0.1-1.7
	C51.4,95.2,51.2,94.2,51,93.2z M12.1,93.9c1.1-0.3,1.1,1.1,2,0.8c0.4-1.1,0.1-2.1-0.8-2.5c-1.5-0.5-3-1-4.7-1.5c0.5,1.1,0.9,2,1.3,3
	c0.3,0.7,0.9,1.2,1.6,1.7c0.6,0.4,1.2,0.4,1.8,0C12.8,94.9,12.5,94.4,12.1,93.9z M19,78.4c-0.7-1.9-2-2.4-3.5-2.1
	c-0.8,0.1-1.7,0.1-2.6,0.2c-0.2,0-0.4,0.1-0.8,0.1c1,1.1,1.8,2.1,2.7,3c0.9,0.9,2.1,0.6,2.7-0.6c-0.4,0-0.7-0.1-1.1-0.1
	c-0.3,0-0.6-0.1-0.9-0.1c-0.4-0.1-0.6-0.3-0.5-0.7C16.4,78,17.6,78.2,19,78.4z M29.8,59.7c-0.7,0.6-1.4,1.2-2.1,1.8
	c-0.6,0.5-1.1,1.2-1.3,2c-0.3,0.9-0.1,1.5,0.5,2.1c0.5-0.5,0.4-1.5,1.6-1.5c-0.3,0.7-0.5,1.3-0.7,1.9c1.4-0.3,2.1-1.2,2.2-2.6
	C29.9,62.2,29.8,61,29.8,59.7z M19.2,56.1c0.5,0.1,0.7,0.2,0.5,0.8c-0.1,0.3-0.2,0.7-0.2,1.1c1.1,0.1,1.8-0.4,1.9-1.4
	c0.2-1.5,0.3-3,0.4-4.7c-0.7,0.6-1.3,1-1.9,1.5c-1.1,0.9-1.5,2.1-1.6,3.5c0,0.3,0.2,0.5,0.2,0.8c0.1,0,0.1,0,0.2,0
	C18.9,57.1,19.1,56.6,19.2,56.1z M35.8,76.1c0.6-0.3,1.2-0.4,1.1-1.1c0-0.7-0.1-1.4-0.3-1.9c-0.5-1-1.1-2-1.7-3
	c-1,1.3-1.4,4.2-0.8,5.4c0.2,0.4,0.5,0.6,0.9,0.6c-0.1-0.5-0.1-0.9-0.1-1.3c0-0.3-0.2-0.7,0.3-0.8c0.5-0.1,0.4,0.3,0.4,0.7
	C35.6,75.1,35.7,75.5,35.8,76.1z M49.6,73.3c0.9-1.2,0.9-1.2,1.4-0.9c-0.1,0.2-0.2,0.4-0.3,0.6c-0.1,0.2-0.2,0.5-0.3,0.8
	c1.4,0.1,2-0.4,2-1.7c0-1.3-0.2-2.7-0.3-4c-0.1,0-0.2-0.1-0.3-0.1c-0.8,1.1-1.6,2.2-2.4,3.3C49,71.9,49,72.7,49.6,73.3z M24,94.6
	c-0.8-1.8-2.9-2.2-4.5-1c0.3,0.5,0.5,1,0.8,1.4c0.3,0.4,0.6,0.9,1.1,1.2c1,0.7,1.9,0.6,2.5-0.5c0,0,0-0.1,0-0.2
	c-0.2,0-0.3,0-0.5-0.1c-0.1-0.1-0.2-0.2-0.3-0.3C23.5,94.9,23.7,94.7,24,94.6z M25,106.5c-1.9,0.1-3.5,1.9-3.6,4.1
	c3.2-0.2,4.6-1.3,4.3-3.4c-0.5,0.1-1,0.3-1.6,0.5C24.3,107,24.3,107,25,106.5z M20.4,85.4c0,1.1,0.4,2,0.9,3
	c0.5,0.8,1.1,1.1,1.9,0.9c0-0.2,0.1-0.4,0.1-0.7c0.3,0.2,0.5,0.4,0.8,0.6C24.5,86.8,23,85.3,20.4,85.4z M6.1,64.4
	c0.7,0.4,1.1,0.7,1.6,0.8c0.7,0.3,1.3,0.5,2,0.6c1,0.1,2.1-0.5,2.5-1.2c-0.7,0-1.3,0.4-2.1,0.2c0.6-0.8,1.6-0.6,2.3-1.1
	c-0.9-0.6-1.8-0.9-2.8-0.6C8.4,63.4,7.4,63.9,6.1,64.4z M14.4,103c-1.5-0.2-3,1.2-3.2,3.2c0.4,0,0.8,0,1.2,0
	c0.9,0.1,1.6-0.2,2.4-0.5c1.1-0.5,1.2-1.3,0.5-2.2c-1.2,0.6-1.2,0.6-1.8,0.1C13.6,103.4,14,103.2,14.4,103z M15.4,70
	c1.3,0.6,2.4,1.3,3.7,1.5c0.4,0.1,0.9-0.2,1.3-0.3c0.4-0.2,0.3-0.5,0.2-0.9c0-0.2,0.2-0.4,0.4-0.6C19.3,68.7,18.9,68.8,15.4,70z
	 M51,84.7c0.8,1.7,2.9,1.7,4.5,0.1c-0.8-0.5-1.5-1-2.3-1.5c-0.9-0.5-1.7-0.4-2.5,0.2c0.2,0.6,1.4-0.1,1.2,1.1
	C51.7,84.7,51.4,84.7,51,84.7z M41.7,74c-0.1,0-0.2,0.1-0.3,0.1c-0.6,1.5-0.6,3-0.4,4.5c0,0.3,0.4,0.6,0.7,1c0.1,0,0.2-0.1,0.2-0.1
	c-0.2-0.8-0.3-1.5-0.5-2.3c1-0.2,0.8,0.5,1,0.9c0.2,0.4,0.2,0.9,0.3,1.4c1-0.8,1.2-1.4,0.7-2.4C42.9,76,42.3,75,41.7,74z
	 M55.7,104.7c-0.6-0.5-1.1-1-1.7-1.5c-0.6-0.4-1.2-0.5-1.9-0.4c-0.4,0.1-0.5,0.4-0.3,0.7c0.3,0.3,1-0.1,1.2,0.5
	c-0.5,0.1-0.9,0.3-1.3,0.4c0,1.3,0.7,1.9,1.8,1.5C54.3,105.7,54.9,105.2,55.7,104.7z M30.8,96c0.8,0.2,1.6-0.1,1.6-0.6
	c0.1-0.9,0.1-1.8,0.2-2.7c-1.6,0.2-2.5,1-2.6,2.3c0.3,0,0.6,0,0.9,0.1C30.9,95.4,30.8,95.7,30.8,96z"/>
<path fill="#1C1C1B" d="M184.6,78.5c0,0.6,0.2,1.2,0.7,1.6c0.8,0.6,1.6,1.2,2.4,1.8c0.2,0.2,0.5,0.3,0.6,0.5
	c0.6,0.8,1.3,1.3,2.2,1.8c0.3,0.1,0.5,0.3,0.6,0.5c0.4,0.6,0.7,1.3,1.1,1.9c0,0.1,0,0.2,0,0.3c-0.5-0.1-0.9-0.2-1.3-0.3
	c-0.4-0.1-0.8-0.2-1.1-0.5c-1-0.7-2.2-1-3.4-1.1c-0.7-0.1-1,0.4-1.3,0.9c-0.1,0.1,0,0.4,0,0.5c0.3,0.7,1,1,1.7,1
	c0.7,0,1.3-0.1,2-0.2c0.7-0.1,1.4-0.1,2.1,0.1c0.4,0.1,0.9,0.1,1.3,0.2c0.4,0,0.8,0.2,1,0.5c0.8,1,1.5,2.1,2.3,3.1c0,0,0,0.1,0,0.3
	c-0.2-0.1-0.3-0.1-0.5-0.1c-0.5-0.2-1-0.3-1.5-0.5c-0.7-0.2-1.3-0.4-2-0.7c-0.7-0.3-1.4-0.3-2.2-0.2c-0.4,0-0.8,0.1-1.1,0.1
	c-0.6,0-1,0.4-1.4,0.8c-0.3,0.5-0.3,1,0.2,1.4c0.4,0.3,0.8,0.5,1.3,0.5c0.6,0,1.2-0.2,1.8-0.5c0.6-0.3,1.2-0.6,1.9-0.9
	c0.3-0.2,0.7-0.2,1-0.1c1,0.1,1.9,0.5,2.7,1c0.4,0.2,0.7,0.5,0.8,0.9c0.2,0.4,0.3,0.8,0.5,1.2c-0.3,0-0.5,0-0.7,0
	c-0.3,0-0.6-0.1-0.9,0c-0.5,0-0.9-0.1-1.4-0.3c-1.3-0.6-2.5-0.4-3.7,0.2c-0.5,0.3-0.7,1.2,0,1.6c0.4,0.3,0.8,0.3,1.3,0.3
	c0.8-0.1,1.5-0.3,2.2-0.7c0.5-0.3,1.2-0.5,1.8-0.6c0.4-0.1,0.8,0,1.1,0c0.4,0.1,0.7,0.4,0.9,0.9c0.3,0.9,0.5,1.9,0.6,2.9
	c0,0.7-0.1,1.3-0.3,1.9c-0.1,0.3-0.2,0.7-0.3,1c-0.1,0-0.2,0-0.2,0c-0.7-1-1.7-1.7-2.8-2.3c-0.7-0.4-1.4-0.9-2.1-1.3
	c-0.2-0.1-0.3-0.3-0.4-0.4c-0.1-0.1-0.2-0.1-0.3,0c-0.1,0-0.2,0.2-0.1,0.2c0.1,0.6,0.2,1.1,0.6,1.6c0.6,0.7,1.3,1.1,2.1,1.5
	c0.4,0.2,0.8,0.4,1.1,0.5c0.8,0.3,1.2,0.9,1.5,1.5c0.1,0.3,0.1,0.6,0,0.9c-0.2,0.8-0.4,1.6-0.6,2.3c0,0-0.1,0.1-0.1,0.1
	c-0.4-0.5-0.9-1.1-1.2-1.6c-0.5-0.8-1.3-1.4-2.1-1.9c-1.3-0.9-2.6-1.9-3.7-3c-0.4-0.4-0.7-0.8-1.1-1.3c-0.3-0.4-0.6-0.9-0.5-1.5
	c0-0.1-0.1-0.2-0.2-0.5c-0.1,0.2-0.3,0.4-0.3,0.5c-0.1,1.1-0.1,2.2,0.2,3.2c0.1,0.4,0.3,0.8,0.6,1.2c1,1.4,2.1,2.7,3.5,3.7
	c0.4,0.3,0.9,0.6,1.3,0.8c0.9,0.5,1.7,1,2.4,1.8c0.5,0.5,0.8,1.1,0.7,1.9c-0.4,1.7-0.5,3.5-0.8,5.3c-0.3,1.8-1,3.6-1.9,5.2
	c-0.3,0.5-0.8,0.9-1.1,1.3c-0.1,0.1-0.2,0.1-0.2,0.2c-0.1,0.1-0.1,0.2-0.1,0.4c0.1,0,0.3,0.1,0.4,0.1c0.7-0.4,1.2-0.8,1.6-1.5
	c1.2-2,1.9-4.1,2.2-6.4c0.2-1.2,0.4-2.3,0.5-3.5c0.1-0.7,0.6-1.2,1-1.6c0.5-0.6,1.3-0.9,2-1c0.3-0.1,0.6-0.1,0.8-0.1
	c0.9-0.1,1.8-0.4,2.5-0.9c0.3-0.2,0.5-0.3,0.8-0.5c1.8-1.1,3.3-2.5,4.3-4.3c0-0.1,0.1-0.2,0.1-0.3c0-0.1-0.1-0.2-0.2-0.2
	c0,0-0.2,0-0.2,0c-0.1,0.1-0.2,0.3-0.3,0.4c-0.2,0.4-0.6,0.7-1,0.9c-0.7,0.2-1.4,0.5-2.2,0.7c-2,0.5-3.8,1.4-5.4,2.7
	c-0.5,0.4-1.1,0.8-1.5,1.3c-0.1,0.1-0.2,0.1-0.4,0.3c0.1-1.5,0.5-2.8,0.9-4.2c0.1,0,0.3-0.1,0.5-0.1c1.9,0.2,3.4-0.6,4.7-1.8
	c0.8-0.8,1.6-1.5,2.5-2.3c0.4-0.4,0.9-0.7,1.6-0.7c0.4,0,0.7-0.1,1-0.5c-0.1-0.1-0.2-0.2-0.3-0.2c-0.2,0-0.3,0-0.5,0
	c-0.6,0.1-1.1,0.2-1.7,0.2c-1.2,0-2.2,0.4-3.1,1.1c-0.8,0.6-1.5,1.3-2.3,1.9c-0.5,0.4-1.1,0.8-1.6,1.1c-0.1,0.1-0.2,0-0.5,0.1
	c0.1-0.2,0.1-0.4,0.2-0.4c0.3-0.4,0.5-0.8,0.6-1.3c0.2-1.2,0.7-2.2,1.1-3.2c0.5-1.1,1.1-2.2,1.7-3.4c0.2-0.5,0.6-0.7,1.1-0.6
	c0.4,0,0.9,0.1,1.3,0.3c0.8,0.3,1.7,0.7,2.5,1c1.3,0.6,2.6,0.7,4,0.5c0.3,0,0.7-0.2,1-0.4c0.8-0.5,1.6-1,2.3-1.6
	c0.5-0.4,1-0.7,1.6-1c0.2-0.1,0.3-0.1,0.5-0.3c0.1,0,0.1-0.2,0.1-0.3c0-0.1-0.2-0.2-0.2-0.1c-0.2,0-0.3,0.1-0.5,0.2
	c-0.5,0.2-1,0.5-1.5,0.7c-1.6,0.4-3.1,0.6-4.8,0.6c-1,0-1.9-0.2-2.9-0.4c-0.9-0.2-1.9-0.2-2.8-0.1c-0.1,0-0.3,0-0.5,0
	c0.1-0.2,0.1-0.3,0.1-0.4c0.9-1.5,2.1-2.8,3.3-4c0.2-0.2,0.5-0.4,0.7-0.6c0.4-0.5,0.8-0.6,1.4-0.5c1,0.1,1.8,0.5,2.5,1.2
	c0.4,0.4,0.7,0.9,1.1,1.3c0.2,0.2,0.3,0.4,0.5,0.5c0.2,0.2,0.4,0.2,0.7,0.1c0.3-0.1,0.3-0.4,0.3-0.6c-0.1-0.8-0.4-1.4-1.1-1.8
	c-1.2-0.7-2.4-1.1-3.7-1.2c-0.1,0-0.2,0-0.3-0.1c0.2-0.4,0.5-0.6,0.8-0.8c0.2-0.2,0.4-0.3,0.6-0.4c0.4-0.5,1-0.5,1.5-0.4
	c1,0.2,1.9,0.6,2.5,1.5c0.3,0.5,0.7,0.8,1.3,1c0.3,0.1,0.6,0.1,0.8,0c0.4-0.2,0.6-0.5,0.2-0.9c-0.2-0.2-0.4-0.5-0.7-0.7
	c-0.9-0.7-1.9-1.3-3.1-1.4c-0.3,0-0.7-0.1-1.1-0.2c0.1-0.2,0.2-0.3,0.3-0.4c0.3-0.3,0.7-0.5,1-0.8c0.4-0.4,0.8-0.5,1.3-0.5
	c1,0,2,0.2,2.9,0.8c0.2,0.6,0.5,1.3,0.7,1.9c0.2,0.5,0.5,0.9,0.9,1.1c0.3,0.2,0.6,0.1,0.7-0.1c0.1-0.2,0.2-0.5,0.2-0.7
	c-0.1-0.7-0.3-1.4-0.9-1.8c-0.8-0.6-1.6-1.2-2.5-1.4c-0.5-0.1-1-0.2-1.5-0.3c0-0.1,0-0.2,0-0.2c0.6-0.5,1.3-0.8,2-1.1
	c0.8-0.3,1.7,0,2.4,0.4c0.5,0.3,0.9,0.6,1.3,1.1c0.3,0.5,0.7,0.9,1.1,1.4c0.2,0.2,0.4,0.4,0.7,0.6c0.4,0.2,0.8,0.1,1.1-0.2
	c0.2-0.2,0.3-0.4,0.2-0.7c-0.1-0.5-0.4-0.9-0.8-1.2c-0.8-0.6-1.6-1.1-2.6-1.2c-0.6-0.1-1.2-0.3-1.9-0.8c0.5-0.4,1.1-0.8,1.7-1
	c1.4-0.6,2.7-1.5,4-2.3c0.4-0.2,0.7-0.6,1-1c0.2-0.2,0.3-0.6,0.4-0.8c0.1-0.3,0-0.5,0-0.8c-0.5-0.4-1-0.4-1.5-0.2
	c-0.6,0.3-1.1,0.5-1.5,1.1c-0.6,0.8-1.2,1.5-1.8,2.3c-0.6,0.7-1.3,1.3-2,1.8c-0.1,0-0.1,0-0.2,0c0-0.3,0.1-0.6,0.1-0.9
	c0-0.6,0.2-1.1,0.6-1.5c0.8-1,0.9-2.1,0.7-3.3c-0.1-0.6-0.5-0.9-0.9-1.2c-0.3-0.2-0.6-0.2-0.9,0.1c-0.4,0.4-0.6,0.9-0.6,1.4
	c0,0.5,0,1,0.1,1.5c0.2,1,0.4,2.1,0.3,3.1c0,0.8-0.3,1.5-1.1,1.8c-0.3,0.1-0.5,0.3-0.8,0.5c-0.2,0.1-0.3,0.2-0.6,0.1
	c0.5-1.2,0.5-2.4,0.6-3.7c0.1-1,0-2-0.7-2.9c-0.2-0.2-0.4-0.5-0.8-0.4c-0.3,0.1-0.5,0.3-0.6,0.7c0,0.4-0.1,0.8,0,1.1
	c0.1,0.6,0.4,1.3,0.6,1.9c0.2,0.5,0.4,1,0.6,1.5c0.1,0.3,0.2,0.7,0,1c-0.2,0.8-0.5,1.5-1.3,2c-0.6,0.4-1.1,0.8-1.6,1.1
	c0,0-0.1,0-0.1,0c0-0.1-0.1-0.1-0.1-0.2c0.1-0.9,0-1.8-0.1-2.7c-0.1-0.7-0.1-1.5-0.1-2.2c0-0.3-0.1-0.7-0.2-1
	c-0.1-0.7-0.6-1.2-1.1-1.6c-0.4-0.2-0.8-0.1-0.9,0.3c-0.2,0.5-0.2,1.1,0,1.6c0.4,0.7,0.8,1.5,1.2,2.2c0.7,1,0.9,2,0.7,3.2
	c-0.2,1.2-0.1,1-1,1.7c-0.6,0.5-1.3,1-1.9,1.5c0-0.1-0.1-0.3-0.1-0.4c0-0.5,0.1-1,0.1-1.5c0.1-1.2-0.1-2.3-0.4-3.4
	c-0.1-0.5-0.4-1-0.8-1.3c-0.3-0.2-0.5-0.4-0.9-0.2c-0.4,0.2-0.5,0.4-0.5,0.8c0,0.5,0.1,0.9,0.4,1.4c0.5,0.8,0.9,1.6,1.2,2.5
	c0.3,1,0.6,1.9,0.1,2.9c-0.6,0.6-1.1,1.2-1.6,1.8c-0.1-0.1-0.2-0.2-0.2-0.3c-0.1-1.5-0.6-2.9-1.1-4.3c-0.4-0.9-0.6-1.9-0.8-2.9
	c-0.2-1.1-0.1-2.2,0.1-3.2c0.1-0.5,0.2-0.9,0.5-1.3c0.1-0.1,0.1-0.1,0-0.6c-0.3,0-0.4,0.2-0.5,0.3c-0.5,0.7-0.9,1.4-1.4,2.1
	c-0.4,0.7-0.7,1.5-0.7,2.4c0,0.8,0.1,1.6,0.1,2.4c0.1,0.7,0.4,1.3,0.7,1.9c0.3,0.6,0.8,1.2,1.2,1.9c0.3,0.4,0.5,0.9,0.8,1.3
	c0.3,0.6,0.3,1.2-0.1,1.8c-0.4,0.5-0.8,1.1-1.2,1.6c-0.1,0.1-0.2,0.2-0.3,0.3c-0.2-0.2-0.1-0.5-0.2-0.7c-0.1-0.2-0.1-0.4-0.2-0.6
	c-0.4-0.8-0.8-1.7-1.3-2.5c-0.3-0.6-0.6-1.2-0.4-1.9c0-0.1,0-0.2,0-0.2c-0.1-0.1-0.1-0.2-0.2-0.2c-0.1,0-0.2,0.1-0.2,0.2
	c-0.1,0.1-0.1,0.3-0.1,0.4c-0.1,0.3-0.1,0.7-0.2,1c-0.3,1.2-0.2,2.4,0.6,3.5c0.4,0.5,0.7,1,1,1.5c0.3,0.5,0.4,1,0.1,1.6
	c-0.3,0.4-0.5,0.9-0.7,1.3c-0.2,0.3-0.3,0.6-0.5,0.9c-0.3,0.6-0.5,1.2-0.9,1.9c-0.1-0.2-0.2-0.3-0.2-0.4c-0.1-0.6-0.3-1.2-0.4-1.7
	c-0.2-0.6-0.3-1.1-0.6-1.7c-0.7-1.7-1.7-3.4-2.8-4.9c-0.5-0.7-0.6-1.3-0.4-2.1c0.3-0.9,0.6-1.8,1.5-2.3c0.6-0.5,1.1-1.1,1.1-1.9
	c0-0.2,0-0.5-0.1-0.7c-0.2-0.7-0.9-0.7-1.2-0.3c-0.4,0.4-0.7,0.8-0.9,1.3c-0.2,0.6-0.5,1.2-0.4,1.8c0,0.2,0,0.4-0.1,0.6
	c-0.3,0.6-0.5,1.2-0.5,1.9c-0.1-0.1-0.3-0.1-0.3-0.2c-0.5-0.9-1.1-1.8-1.6-2.7c-0.2-0.3-0.1-0.5-0.1-0.8c0.1-1.1,0.7-2,1.4-2.8
	c0.3-0.4,0.7-0.7,0.9-1.1c0.2-0.3,0.4-0.7,0.5-1.1c0.1-0.2,0-0.5,0-0.7c-0.1-0.4-0.5-0.6-0.8-0.4c-0.3,0.1-0.6,0.3-0.8,0.6
	c-0.6,0.6-1,1.3-1,2.1c-0.1,0.8-0.2,1.5-0.4,2.3c0,0.1-0.1,0.2-0.2,0.4c-0.3-0.4-0.4-0.7-0.5-1.1c-0.3-0.9-0.3-1.9-0.5-2.9
	c0-0.3,0.1-0.5,0.2-0.8c0.2-1,0.3-1.9,0.3-2.9c0-0.5-0.2-1-0.4-1.5c-0.2-0.3-0.4-0.4-0.7-0.3c-0.4,0.2-0.7,0.5-0.8,0.9
	c-0.2,0.5-0.3,1.1-0.1,1.6c0.2,0.7,0.4,1.4,0.6,2.1c0.2,0.7,0.3,1.5,0.5,2.2c0.2,0.7,0.4,1.5,0.7,2.2c0.1,0.3,0.3,0.5,0.3,0.9
	c-0.8-0.4-1.3-0.8-1.7-1.4c-0.4-0.5-0.7-1.1-1-1.7c-0.5-0.8-1-1.6-1.7-2.2c-0.2-0.2-0.4-0.3-0.6-0.4C185,77.7,184.6,78,184.6,78.5z
	 M199.7,90C199.7,90,199.7,89.9,199.7,90L199.7,90C199.7,89.9,199.7,90,199.7,90z M209.1,93.8C209.1,93.8,209.1,93.8,209.1,93.8
	c-0.5-0.2-1.1-0.2-1.8-0.2C208.1,93.6,208.6,93.6,209.1,93.8z M210.6,93.6c-0.5-0.1-0.7,0-1.3,0.2c0,0,0,0,0,0
	C209.8,93.6,210.1,93.6,210.6,93.6z M202,101.4c0,0,0.1,0,0.2,0c0,0,0,0,0,0C202.1,101.4,202,101.3,202,101.4z M202.2,101.4
	L202.2,101.4c0.1-0.2,0.2-0.3,0.4-0.5C202.5,101.1,202.3,101.2,202.2,101.4z M198.7,106.8c0.1-0.1,0.1-0.2,0.1-0.3c0,0,0,0,0,0
	C198.8,106.6,198.7,106.7,198.7,106.8z M199.2,107.2L199.2,107.2c0.1,0.1,0.1,0.2,0.2,0.2C199.3,107.3,199.2,107.2,199.2,107.2z
	 M199,107.3c0,0,0-0.1,0.1-0.1c0,0,0,0,0,0C199.1,107.2,199.1,107.3,199,107.3z M199.1,106.6c-0.1,0-0.2-0.1-0.2-0.1c0,0,0,0,0,0
	C198.9,106.6,199,106.6,199.1,106.6z"/>
<g>
	<path fill="#1C1C1B" stroke="#1C1C1B" stroke-width="0.25" stroke-miterlimit="10" d="M196.6,122.4c-2.3-1.4-4.6-2.8-6.8-4.3
		c-1.8-1.3-3.5-2.7-5-4.2c-3.3-3.2-5.4-7.3-7.7-11.2c-0.5-0.9-2.5-3.4-2.9-4.4c-0.7-1.8,0.4-9.6,0.1-21.2c-0.2-5.3-1.5-7.2-1.6-13
		c-0.1-5.4-0.1-13.5-0.2-18.4c-0.1-11.6,1-22.1,0.9-23.9c0-0.7-0.1-1.5-0.2-2.5c-1.2,0.9-2,1.7-2.9,2.2c-3.3,1.9-6.9,2.5-10.6,2.9
		c-4.1,0.4-8.2,0.4-12.3,0.6c-4.4,0.2-8.8,0.3-13.2,0.5c-4.8,0.2-9.6,0.3-14.5,0.5c-1.8,0.1-3.7,0.3-5.5,0.3c-3.2,0-6.4-0.1-9.6-0.1
		c-3.5-0.1-7.1-0.2-10.6-0.3c-2,0-4,0-6-0.1c-3,0-6,0-8.9-0.1c-2.4,0-4.8,0-7.2-0.1c-2.3-0.1-4.4-0.8-6.4-2.1
		c-0.4-0.2-0.8-0.4-1.4-0.6c0,0.9,0,1.6,0,2.3c0.1,1.4-0.7,6.4-0.3,13.9c0.3,5.1,1.8,11.6,1.7,17.9c0,2.9-0.1,5.8-0.2,8.7
		c-0.5,17.8-1.9,35.3-2.3,37.9c-0.9,6.7-5,11.4-9.7,15.8c-1.8,1.6-3.6,3.2-5.4,4.8c-0.8,0.7-1.7,1.5-2.6,2.2
		c-1.2,0.9-2.4,1.8-3.7,2.6c1,0.2,1.7,0.1,2.5,0c2-0.3,3.9-0.8,5.9-1c2.6-0.2,5.1-0.6,7.5-1.6c1.6-0.7,2.9-0.5,3.7,1
		c1.8-0.4,3.6-0.8,5.3-1.1c2.9-0.4,5.8-0.7,8.7-1c1-0.1,1.5,0.4,1.3,1.4c-0.4,1.9-0.8,3.9-2.3,5.4c-0.4,0.3-0.5,0.8-1,1.5
		c3.4-0.8,6.4-1.3,9.3-2.2c1.4-0.5,2.2-0.2,2.8,0.6c1.8-0.5,3.3-0.9,4.9-1.3c3.3-0.7,6.5-1.3,9.8-2c1.7-0.4,3.3-0.2,4.7,0.8
		c1.5,1,2.9,2.3,4.5,3.1c1.3,0.7,2.8,1,4.2,1.4c0.3,0.1,0.8-0.1,0.9-0.3c0.7-1.5,1.4-0.9,2.5-0.4c1.2,0.6,2.5,1,3.8,1
		c1.2,0,1.4-1.5,1.9-2.4c0.1-0.2,0.2-0.4,0.3-0.6c0.9-0.9,1.6-1.7,3.2-1.6c1.9,0.1,3.9-0.4,5.9-0.6c1.5-0.2,3-0.8,4.4-0.6
		c3.5,0.5,7.1,0.8,10.4,2c3.5,1.3,7.3,1.8,10.5,3.9c0.4,0.3,1,0.2,1.4,0.3c-0.1-1.7-0.2-3.2-0.3-4.8c-0.1-1.1,0.6-1.7,1.2-2.4
		c0.6-0.7,1.2-0.5,1.9-0.3c0.3,0.1,0.8-0.1,1.1-0.2c0.4-0.1,0.8-0.3,1.2-0.3c1.9,0.3,3.9,0.7,5.8,1c1,0.2,2.1,0.3,3.2,0.5
		c0-1.4,0.1-2.6,0.1-3.8c0-1.8,0.2-1.9,2-1.6c1.7,0.3,3.5,0.7,5.2,0.8c2.5,0.3,5,0.2,7.4,0.6c2.3,0.4,4.4,0,6.5-0.8
		c1.1-0.4,2.2-0.7,3.3-1C197.1,122.7,196.9,122.5,196.6,122.4z M154.8,65.3l-0.2,2.1l-0.8,1.3l-0.8,2l-0.7,2.1l-1.5,1.8l-1,1.5
		l-1,1.3l-1.5,1.3l-1.2,1.8l-1.8,1.2l-1.5,1.6l-1.8,1.3l-3.1,1.8l-1.3,1.8l-1.3,1l-1.6,1.3l-1.6,1l-1.5,2.1l-1.6,0.7l-1.5,2
		l-1.3,0.8l-1.3,2.1l-1.2,1l-1.3,1.8l-1.2,1.8l-0.7,1.2l-2,0.3l-1.2-1.5l-0.7-1.8l-1.8-1.5l-0.7-1.6l-1.5-1.2l-1.5-1.5l-1.6-2.1
		l-1-1.2l-1.6-0.7l-1.3-1.5l-1.8-1.3l-1.3-1.2l-1.6-1.6l-3.1-2.6l-1.5-1l-1.5-0.8L93,81l-1.2-1.5l-1.3-1.3l-1.3-1.6L88,74.4
		l-1.2-1.5l-1.2-1.8l-1-4.3L84.4,65l-0.2-1.5v-4.3l0.2-1.8v-2.1l1-2.1l0.7-1.6l0.8-1.8l1.3-1.3l1.5-1.8l1.3-1.3l1.2-1l2.1-1.2
		l1.5-0.7l1.8-1l2.1,0.2l5.9-0.5l3.3,1.3l2.1,0.3l2,1.2l1.6,0.7l1.3,1.6l1.2,1.2l1.2,1.6l2,0.8l1-2.1l1-1.3l1.6-0.8l3.5-2.3l2.3-1.3
		l1.6-0.2l2-0.7l4.5,0.5l1.6-0.3l2.1,0.7l3.3,1.3l1.5,1.3l1.8,1l1.3,1.2l1.2,1.3l1.3,1.6l0.8,2.1l0.7,1.6l0.7,2.1l0.3,1.3l0.3,2.1
		l0.2,3.8L154.8,65.3z"/>
	<path fill="#1C1C1B" stroke="#1C1C1B" stroke-width="0.25" stroke-miterlimit="10" d="M66.1,21.5c1.7,1.2,3.5,2.2,5.6,2.4
		c2.8,0.2,5.7,0.3,8.5,0.4c4,0,8.1-0.1,12.1-0.1c7.2,0.1,14.3,0.3,21.5,0.4c2.1,0,4.2-0.1,6.4-0.2c4.5-0.1,9.1-0.3,13.6-0.4
		c1.1,0,2.1-0.1,3.2-0.1c3.6-0.1,7.2-0.2,10.8-0.4c1.6-0.1,3.1-0.6,4.6-0.5c4.8,0,9.6,0,14.3-1.5c3.2-1,5.2-3.1,7.3-5.3
		c-1.1-1.5-1.4-1.8-3.1-2.3c-3.2-0.9-6.4-1.7-9.7-2.4c-3.7-0.8-7.3-1.6-11.1-2.1c-3.9-0.5-7.9-0.8-11.8-1.1c-4.7-0.3-9.3-1.2-14-0.7
		c-0.2,0-0.4,0-0.6,0c-4.3-0.5-8.6,0-12.9,0.5c-5.5,0.5-11,1.5-16.4,2.5c-4.2,0.8-8.6,1.1-12.6,2.9c-3,1.4-6.1,2.5-9.2,3.8
		c-0.9,0.4-1.6,1-1.7,2c0,0.7,1.3,1.7,2.3,1.9c0.2,0,0.4,0,0.6,0c4.9,0.2,9.7,0.7,14.6,0.2c4.1-0.4,8.2-0.2,12.3-0.2
		c4.8,0,9.5,0.2,14.3,0.3c4.5,0,8.9,0.4,13.4,0.1c6.5-0.5,13-0.8,19.6-1c5.9-0.2,11.6-1.1,17.2-2.5c0.9-0.2,1.7-0.7,2.7-1.1
		c-0.5-0.3-0.7-0.5-0.9-0.5c-3-0.6-6-1.1-9-1.7c-4.7-1.1-9.5-1.5-14.3-1.9c-4.3-0.3-8.7-0.4-12.9-0.9c-2.8-0.3-5.5-0.6-8.3-0.3
		c-0.6,0.1-1.3,0-1.9,0c-4.1,0.1-8.2,0-12.3,0.3c-3,0.2-6,0.9-9,1.4c-2.9,0.5-5.7,0.9-8.6,1.5c-4,0.9-8,2.1-11.9,3.2
		c-0.6,0.2-1.2,0.5-2,0.8c0.6,0.2,0.8,0.4,1,0.4c3,0,6,0.1,8.9-0.2c7.5-0.6,14.9,0,22.3,0c4.6,0,9.2,0.2,13.8,0.1
		c6.9-0.2,13.8-0.6,20.7-0.9c1.1,0,2.1-0.1,3.2-0.1c2.2,0,4.5,0,6.7-0.1c0-0.1,0-0.3,0-0.4c-0.7-0.1-1.3-0.3-2-0.3
		c-2.5-0.3-5.1-0.6-7.6-1c-5-0.7-9.9-1.6-15-1.4c-2.1,0.1-4.2,0.3-6.2-0.1c-3-0.6-6-0.1-8.9,0.2c-3.1,0.3-6.2,0.7-9.3,0.8
		c-0.8,0-1.7,0.2-2.5,0.3c0.2,0.4,0.4,0.5,0.6,0.5c5.2,0.6,10.3,0.8,15.5,0.8c0.3,0,0.6-0.1,0.8-0.3c1.2-1.2,2.9-1.1,4.4-1.1
		c2.7,0,5.4,0.1,8.1,0.3c1.2,0.1,2.5-0.1,3.6,0.7c-0.1,1-0.7,1.1-1.4,1.1c-1.4,0.1-2.8,0.4-4.2,0.4c-4.2,0-8.4,0-12.5-0.1
		c-3.1-0.1-6.2-0.2-9.4-0.3c-5-0.2-9.9-1.1-14.9-0.4c-1.1,0.2-2.3,0.1-3.4,0.1c-0.7,0-1.2-0.2-1.5-1.1c0.6-0.1,1-0.2,1.5-0.2
		c3-0.3,5.9-0.5,8.9-0.9c2.3-0.2,4.6-0.9,6.9-0.8c2.9,0.1,5.6-0.2,8.5-0.6c2.5-0.3,5-0.5,7.4-0.5c3.3,0,6.5,0.2,9.8,0.4
		c2.3,0.1,4.7,0.1,7,0.4c5.2,0.6,10.4,1.3,15.6,1.9c1.6,0.2,3,1,4.7,2.1c-1,0.2-1.6,0.4-2.2,0.4c-3.4,0.1-6.8,0.2-10.2,0.3
		c-4.9,0.2-9.8,0.4-14.7,0.6c-4.3,0.2-8.7,0.5-13,0.6c-4,0.1-8.1-0.1-12.1-0.2c-4.5-0.1-9.1-0.3-13.6-0.3c-4.8,0-9.5,0.2-14.3,0.4
		c-0.3,0-0.6,0.1-0.9,0c-0.9-0.1-1.5-0.5-1.6-1.5c-0.1-0.9,0.4-1.3,1.1-1.5c1-0.3,2-0.6,3.1-0.9c2.5-0.7,5.1-1.3,7.6-1.9
		c2.5-0.6,4.9-1.2,7.5-1.7c2.9-0.5,5.9-1,8.8-1.4c2.6-0.4,5.2-0.8,7.8-1c3.4-0.1,6.8,0,10.2,0.1c3.5,0.1,6.9,0.2,10.4,0.5
		c3,0.2,5.9,0.5,8.9,0.8c1.9,0.1,3.8,0,5.7,0.2c3.9,0.5,7.7,1,11.6,1.7c3.1,0.5,6.3,1.2,9.4,1.9c0.7,0.2,1.4,0.5,2.1,0.8
		c-0.1,1.5-1,2-2,2.2c-3,0.8-6,1.9-9.1,2.3c-4.8,0.6-9.7,0.9-14.6,1c-4.7,0.1-9.4,0.4-14,0.6c-2.5,0.1-5,0.9-7.6,0.4
		c-1.3-0.2-2.5-0.2-3.8-0.2c-3.5-0.1-7.1,0-10.6-0.1c-7.7-0.3-15.3-0.1-23,0.4c-4.2,0.2-8.3-0.2-12.5-0.5c-1.5-0.1-2.4-1.2-2.9-2.5
		c-0.4-0.9,0.3-2.6,1.4-3.1c1.7-0.9,3.5-1.6,5.2-2.3c2.7-1.1,5.5-2.1,8.2-3.2c-4,0.5-8,1.3-11.9,2.2c-2.6,0.6-5.2,1.6-7,3.8
		C64.3,18.8,64.4,20.3,66.1,21.5z"/>
	<path fill="#1C1C1B" stroke="#1C1C1B" stroke-miterlimit="10" d="M95.8,9.2c-3.3,0.1-6.6,0.4-9.8,1.1c0,0.2,0.1,0.3,0.1,0.5
		C89.3,10.3,92.6,9.8,95.8,9.2z"/>
</g>
<g>
	<path fill="#CF2A27" stroke="#CF2A28" stroke-width="0.1" stroke-miterlimit="10" d="M155,58.8l-0.3-2.1l-0.3-1.3l-0.7-2.1
		l-0.7-1.6l-0.8-2.1l-1.3-1.6l-1.2-1.3l-1.3-1.2l-1.8-1l-1.5-1.3l-3.3-1.3l-2.1-0.7l-1.6,0.3l-4.5-0.5l-2,0.7l-1.6,0.2l-2.3,1.3
		l-3.5,2.3l-1.6,0.8l-1,1.3l-1,2.1l-2-0.8l-1.2-1.6l-1.2-1.2l-1.3-1.6l-1.6-0.7l-2-1.2l-2.1-0.3l-3.3-1.3l-5.9,0.5l-2.1-0.2l-1.8,1
		l-1.5,0.7L92.3,44l-1.2,1l-1.3,1.3l-1.5,1.8l-1.3,1.3l-0.8,1.8l-0.7,1.6l-1,2.1v2.1L84.4,59v4.3l0.2,1.5l0.3,1.8l1,4.3l1.2,1.8
		l1.2,1.5l1.2,2.1l1.3,1.6l1.3,1.3l1.2,1.5l1.8,1.5l1.5,0.8l1.5,1l3.1,2.6l1.6,1.6l1.3,1.2l1.8,1.3l1.3,1.5l1.6,0.7l1,1.2l1.6,2.1
		l1.5,1.5l1.5,1.2l0.7,1.6l1.8,1.5l0.7,1.8l1.2,1.5l2-0.3l0.7-1.2l1.2-1.8l1.3-1.8l1.2-1l1.3-2.1l1.3-0.8l1.5-2l1.6-0.7l1.5-2.1
		l1.6-1l1.6-1.3l1.3-1l1.3-1.8l3.1-1.8l1.8-1.3l1.5-1.6l1.8-1.2l1.2-1.8l1.5-1.3l1-1.3l1-1.5l1.5-1.8l0.7-2.1l0.8-2l0.8-1.3l0.2-2.1
		l0.2-2.5L155,58.8z M110.3,71.6c-0.1,0.1-0.1,0.3-0.2,0.4c-0.1,0.1-0.2,0.2-0.3,0.3c-0.1,0.1-0.2,0.1-0.3,0.1c0,0-0.1,0-0.1,0
		c-0.1,0-0.1,0-0.1,0c0,0-0.2-0.1-0.4-0.2c-0.2-0.1-0.5-0.2-0.7-0.4c-0.3-0.1-0.5-0.3-0.7-0.4c-0.2-0.1-0.4-0.2-0.4-0.2
		c-0.2-0.1-0.6-0.3-1.1-0.5c-0.5-0.2-1.1-0.5-1.7-0.8c-0.6-0.3-1.3-0.6-2-1c-0.7-0.4-1.3-0.7-2-1S99,67.2,98.5,67
		c-0.5-0.2-0.9-0.4-1.1-0.4l-0.3,9.1l-1.4,0l0.6-23.7c0,0,0.1,0,0.2,0c0.1,0,0.3,0,0.4,0.1c0.1,0,0.3,0,0.4,0.1c0.1,0,0.2,0,0.2,0
		c0.1,0,0.3,0,0.5,0.1c0.2,0,0.3,0.2,0.3,0.4l-0.1,2.6c0.4-0.1,0.8-0.2,1.2-0.5c0.5-0.3,1-0.6,1.6-0.8c0.6-0.3,1.3-0.5,2.1-0.7
		c0.8-0.2,1.6-0.2,2.6-0.1c1.5,0.3,2.6,0.7,3.3,1.2s1,0.9,1,1.4c0,0.5-0.2,1-0.7,1.5c-0.5,0.5-1.1,1.1-1.9,1.7
		c-0.8,0.6-1.6,1.1-2.6,1.7c-1,0.5-1.9,1.1-2.8,1.6c-0.9,0.5-1.7,1-2.5,1.5c-0.8,0.5-1.3,0.9-1.7,1.2c0.3,0.1,0.8,0.4,1.4,0.7
		c0.6,0.3,1.3,0.7,2,1.1c0.7,0.4,1.5,0.8,2.3,1.2s1.6,0.8,2.3,1.2c0.7,0.4,1.3,0.7,1.9,1c0.6,0.3,1,0.5,1.2,0.6
		c0.2,0.1,0.4,0.2,0.6,0.3c0.1,0.1,0.3,0.2,0.4,0.3c0.1,0.1,0.2,0.2,0.2,0.2S110.4,71.4,110.3,71.6z M125.1,65.7
		c-0.1,0.3-0.2,0.4-0.4,0.5c-0.2,0-0.6,0.1-1,0.2c-0.5,0.1-1,0.2-1.5,0.3c-0.5,0.1-1.1,0.2-1.6,0.3c-0.5,0.1-0.8,0.2-1,0.2
		c-0.1,0-0.1,0-0.3,0c-0.1,0-0.2,0.1-0.4,0.1c-0.1,0-0.3,0.1-0.4,0.1c-0.1,0-0.2,0-0.2,0.1c0,0-0.1,0.1-0.2,0.2
		c-0.1,0.1-0.2,0.1-0.2,0.2l-0.1,4.5c0,0.2-0.1,0.4-0.2,0.6s-0.2,0.2-0.4,0.2c-0.1,0-0.3,0-0.4-0.1c-0.1-0.1-0.2-0.2-0.2-0.3
		l-0.6-4.2c-0.1,0-0.1,0-0.2,0c-0.1,0-0.1,0-0.2,0c-0.1,0-0.1,0-0.1,0c-0.6,0-1.2,0.1-1.8,0.2c-0.6,0.2-1.2,0.3-1.7,0.5
		c-0.1-0.1-0.3-0.2-0.5-0.4c-0.2-0.2-0.3-0.4-0.3-0.6c0-0.2,0.1-0.4,0.4-0.5s0.6-0.2,0.9-0.2c0.4,0,0.8-0.1,1.2-0.1s0.8,0,1.2-0.1
		s0.7-0.1,0.9-0.2c0.2-0.1,0.4-0.3,0.4-0.5l0.2-6.4c0-0.1,0.1-0.2,0.2-0.2c0.1-0.1,0.3-0.1,0.5-0.2c0.2,0,0.3-0.1,0.4-0.1
		c0.1,0,0.2,0,0.3,0l-0.2,6.6c1.2-0.3,2.4-0.6,3.8-0.9c1.3-0.3,2.6-0.4,3.9-0.4C125.2,65.2,125.1,65.5,125.1,65.7z M147,57
		c-0.4,0.2-1,0.4-1.6,0.6c-0.7,0.1-1.4,0.3-2.2,0.3c-0.8,0.1-1.6,0.1-2.3,0.2c-0.8,0-1.4,0.1-2.1,0.1c-0.6,0-1.1,0.1-1.4,0.1
		c-0.1,1.4-0.1,2.9,0,4.4c0.1,1.5,0.3,3.1,0.4,4.6c0.2,1.6,0.4,3.1,0.5,4.6c0.2,1.5,0.2,3,0.2,4.4c0.1,0.3,0.1,0.5,0.1,0.7
		c0,0.2-0.1,0.3-0.2,0.3c-0.1,0.1-0.3,0.1-0.5,0.1c-0.2,0-0.5,0-0.7-0.1c-0.2-0.7-0.3-1.6-0.5-2.5c-0.1-1-0.2-2-0.3-3.1
		c-0.1-1.1-0.2-2.2-0.3-3.4c-0.1-1.2-0.2-2.3-0.2-3.5c-0.1-1.2-0.1-2.3-0.2-3.3c-0.1-1.1-0.2-2-0.3-2.9l-0.6,0c-0.7,0-1.3,0-2,0.1
		c-0.7,0.1-1.3,0.2-2,0.3c-0.7,0.1-1.3,0.2-2,0.3c-0.7,0.1-1.3,0.1-2,0.1c-0.2,0-0.4,0-0.6-0.1c-0.2-0.1-0.3-0.2-0.3-0.5
		c0-0.2,0.1-0.4,0.3-0.6c0.2-0.2,0.4-0.3,0.6-0.3l8.3-0.9c0-0.1,0.1-0.2,0.1-0.4c0-0.2,0.1-0.3,0.2-0.5c0.1-0.2,0.2-0.3,0.3-0.4
		c0.1-0.1,0.3-0.2,0.4-0.2c0.2,0,0.4,0.1,0.6,0.2c0.1,0.1,0.3,0.3,0.4,0.4c0.1,0.2,0.2,0.3,0.3,0.4c0.1,0.1,0.2,0.2,0.3,0.2l0.2,0
		c0.2,0,0.5,0,1-0.1c0.5,0,1-0.1,1.6-0.1s1.2-0.1,1.9-0.1c0.7,0,1.3-0.1,1.9-0.1c0.6,0,1.1-0.1,1.6-0.1c0.5,0,0.8-0.1,1-0.1
		c0.1,0,0.2,0,0.4,0c0.2,0,0.4,0,0.5,0C147.7,56.4,147.5,56.7,147,57z"/>
	<path fill="#CF2A27" stroke="#CF2A28" stroke-width="0.1" stroke-miterlimit="10" d="M100.4,61.4c0.7-0.3,1.5-0.7,2.3-1.1
		c0.8-0.4,1.6-0.8,2.3-1.3c0.7-0.4,1.4-0.9,1.9-1.3c0.6-0.4,0.9-0.9,1.1-1.2c0.2-0.4,0.1-0.7-0.2-1.1c-0.3-0.3-1-0.6-2-0.8
		c-0.6-0.1-1.2,0-1.9,0c-0.7,0.1-1.4,0.2-2.1,0.4s-1.4,0.5-2,0.8c-0.6,0.3-1.1,0.7-1.5,1.2c-0.1,0.4-0.1,0.8-0.2,1.2
		c-0.1,0.5-0.1,1-0.2,1.5c-0.1,0.5-0.1,1-0.2,1.5c0,0.5-0.1,1-0.1,1.4c0.1-0.1,0.4-0.3,0.9-0.5C99.1,62,99.7,61.8,100.4,61.4z"/>
</g>
</svg>
